<?xml version="1.0" encoding="UTF-8"?>
<svg version="1.1" viewBox="0 0 1224 1220" width="1224" height="1220" xmlns="http://www.w3.org/2000/svg">
<path transform="translate(0)" d="m0 0h1224v1220h-1224z" fill="#221C1D"/>
<path transform="translate(726,208)" d="m0 0h35l24 4 15 4 16 6 15 7 13 7 16 11 13 12 5 5 10 11 10 15 10 18 9 21 3 9v7l-14 31-15 35-1 7 7 8 6 3 41 12 28 9-2 2-21 3-20 5-22 9-14 8-16 12-14 12-8 8-7 8-11 14-9 15-10 21-6 20-3 15-1 8-1 30-10-5-7-1-13 3-8 7-4 5-5 17-7 31-13 52-6 26v8l6 12 7 6 7 3 8 1 10-2 10-9 1-1 10 1 37 9-3 11-17 56-16 53-6 21-7 22-6 20-12 39-9 31-4 14-11 8-19 11-16 8-18 8-30 10-24 6-25 4-21 2h-46l-28-3-31-6-26-7-30-10-23-10-27-13-1-2 22 3 10 1h41l23-3 27-6 27-9 21-9 22-11 20-12 19-14 11-9 10-9 12-11 7-7 7-8 9-10 13-18 12-19 7-11 14-33 10-30 4-19 2-18v-23l-3-31-2-14-2-13-5-16-8-21-8-16-9-16-10-14-9-10-7-8-15-15-11-9-16-11-17-10-21-9-22-7-19-4-16-2h-36l-23 3-25 6-23 8-20 9-18 10-16 11-12 9-20 18-1-2 13-49 8-38 176-1 12-3 8-4 9-7 8-8 7-11 4-16 13-74 13-77 11-63 5-16 7-11 11-12 10-9 14-9 16-8 16-6 15-4z" fill="#9AE876"/>
<path transform="translate(500,590)" d="m0 0h11l23 2 25 5 21 7 18 8 19 11 13 10 10 9 5 5 10 11 9 13 9 15 9 19 7 19 5 18 4 30 1 10v38l-3 18-6 21-9 24-9 20-11 21-12 18-11 14-12 13-12 12-11 9-13 10-20 13-26 14-23 10-28 9-23 5-21 3-18 1h-12l-24-2-19-3-31-8-24-9-16-7-18-10-18-12-14-11-13-12-15-15-9-11-11-13-2-5 12-22 35-70 15-33 13-30 12-30 14-38 5-15 10-15 11-14 12-13 7-7 11-9 15-11 24-14 22-10 24-8 22-5 15-2z" fill="#9AE876"/>
<path transform="translate(615,91)" d="m0 0h36l20 2 26 5 19 6 20 8 17 9 17 12 14 13 9 11 7 10 10 21 1 5-11-3-21-5-24-3h-24l-18 2-19 4-18 6-21 10-15 10-11 9-15 14-7 8-10 14-6 13-5 21-15 87-15 86-7 41-4 8-5 4-8 3h-7l-4-2-6-11-2-8v-21l4-13 5-9 5-5 11-9 4-5 1-4-4-8-5-9-4-11-1-5v-19l3-12 6-11 4-5 12-8 6-7 1-5-9-16-3-9-1-5v-23l4-13 6-9 9-6 9-3 7-7 1-7-7-8-2-2-139-1 1-8 7-21 10-21 10-15 9-11 13-13 15-11 16-9 19-9 24-8 22-5 21-3z" fill="#9AE876"/>
<path transform="translate(813,674)" d="m0 0 9 1 29 7 31 7 7 2 18 4 15 4 9 2 25 6 1 4-11 46-13 55-11-2-122-29-11-3 2-12 18-75z" fill="#A855F7"/>
<path transform="translate(445,351)" d="m0 0h71l-7 15-4 14-1 6v14l3 14 4 11h-162l-10-5-6-8-4-9-1-6v-15l3-11 4-8 5-5 8-4 7-2z" fill="#9AE876"/>
<path transform="translate(357,451)" d="m0 0h142l-7 15-4 16v18l3 12 4 9v2l-154 1-9-2-10-6-5-10-2-8v-20l3-10 6-9 8-5 5-2z" fill="#9AE876"/>
<path transform="translate(376,253)" d="m0 0h159l-6 10-5 15-1 5v22l4 15 1 5h-157l-10-6-6-10-3-11v-15l4-14 6-9 8-5z" fill="#9AE876"/>
<path transform="translate(846,811)" d="m0 0 16 3 2 1-1 10-10 48-9 43-5 24-5 25-5 24-12 70-2 11-8 35-6 9-10 5h-14l-9-4-5-5-2-5-1-5 20-70 5-17 5-16 13-43 8-27 7-23 8-26 5-17 9-32z" fill="#A855F7"/>
<path transform="translate(755,292)" d="m0 0h15l13 5 10 8 6 8 4 9 1 4v17l-4 11-8 10-10 8-9 4-4 1h-13l-12-4-11-8-6-7-5-11-1-4v-18l4-10 6-9 9-8 11-5z" fill="#221C1D"/>
<path transform="translate(938,362)" d="m0 0 5 1 15 9 14 10 13 10 12 11 7 8 10 12 10 14v2l-12-3-42-13-51-15 1-5 8-18z" fill="#9AE876"/>
<path transform="translate(756,308)" d="m0 0h12l10 4 6 5 4 7 1 4v12l-4 10-7 7-7 3-5 1h-10l-9-4-7-6-4-9v-16l4-8 5-5 8-4z" fill="#9AE876"/>
<path transform="translate(983,699)" d="m0 0 7 1 2 6-1 8-11 46-9 38-8 32-6 2-7-1-2-7 7-31 6-23 5-22 7-29 4-17 2-2z" fill="#A855F7"/>
<path transform="translate(789,653)" d="m0 0 6 1 2 5-1 9-12 49-9 37-7 29-4 2h-8l-2-2-1-7 11-46 5-19 5-22 8-33 2-2z" fill="#A855F7"/>
</svg>
