<?xml version="1.0" encoding="UTF-8"?>
<svg version="1.1" viewBox="0 0 1224 1220" width="1224" height="1220" xmlns="http://www.w3.org/2000/svg">
<path transform="translate(0)" d="m0 0h1224v1220h-1224z" fill="#0A0A0A"/>
<path transform="translate(730,208)" d="m0 0h28l21 3 23 6 20 8 16 8 14 9 9 7 10 9 5 5 11 12 10 15 10 18 9 21 3 9v7l-14 31-15 35-1 7 7 8 6 3 47 14 22 7v1l-28 5-17 5-20 8-14 8-16 12-14 12-8 8-7 8-11 14-9 15-10 21-6 20-3 15-1 8-1 29-8-4-4-1h-7l-10 3-9 7-5 10-6 23-7 31-7 27-9 39v10l5 10 8 7 9 4h9l7-2 10-9 1-1 9 1 37 9-4 16-9 29-11 36-14 47-9 30-7 24-3 9-9 29-9 30-5 17-14 10-18 10-16 8-19 8-24 8-23 6-31 5-27 2h-28l-27-2-31-5-35-9-27-9-24-10-29-14v-1l11 1 16 2h46l27-4 22-5 27-9 21-9 22-11 20-12 19-14 11-9 10-9 12-11 7-7 7-8 9-10 13-18 12-19 4-6 7-15 10-24 10-30 4-19 2-23v-12l-2-27-3-21-2-15-5-16-8-21-8-16-9-16-10-14-9-10-7-8-15-15-11-9-16-11-17-10-21-9-18-6-23-5-14-2-13-1h-16l-22 2-31 6-29 10-20 9-18 10-16 11-12 9-10 9-8 6 2-11 7-26 6-25 5-24 176-1 12-3 8-4 9-7 8-8 7-11 4-16 13-74 13-77 11-63 5-16 7-11 11-12 10-9 14-9 16-8 16-6 15-4 12-2z" fill="#9BE878"/>
<path transform="translate(487,591)" d="m0 0h37l21 3 19 5 15 5 18 8 19 11 13 10 10 9 5 5 10 11 9 13 9 15 9 19 7 19 5 17 5 39 1 18v10l-2 21-5 22-10 28-9 21-12 22-12 19-13 16-11 12-12 12-11 9-13 10-20 13-26 14-23 10-25 8-21 5-30 4h-37l-29-4-25-6-29-10-18-8-18-10-18-12-14-11-13-12-15-15-9-11-11-13-2-5 12-22 35-70 15-33 13-30 12-30 14-38 5-15 10-15 11-14 12-13 7-7 11-9 15-11 24-14 22-10 24-8 22-5z" fill="#9BE878"/>
<path transform="translate(626,91)" d="m0 0h16l27 2 26 5 20 6 20 8 17 9 17 12 14 13 9 11 7 10 10 21 1 4-12-3-18-4-22-3h-31l-21 3-17 4-21 8-19 10-14 10-11 10-8 7-11 12-10 15-5 11-5 21-15 87-15 86-7 41-4 8-5 4-4 2h-11l-4-4-4-8-2-8v-21l4-13 5-9 5-5 11-9 4-5 1-4-4-8-5-9-4-11-1-5v-19l3-12 6-11 4-5 12-8 6-7 1-5-9-16-3-9-1-5v-23l4-13 6-9 9-6 9-3 7-7 1-7-7-8-2-2-139-1 1-8 7-21 10-21 10-15 9-11 13-13 15-11 16-9 19-9 21-7 26-6 22-3z" fill="#9BE878"/>
<path transform="translate(814,674)" d="m0 0 11 2 74 18 31 7 25 6 2 1-3 16-12 49-4 17-5 18-1 4-19-4-64-16-46-11-13-3-1-3 17-69z" fill="#A855F7"/>
<path transform="translate(357,352)" d="m0 0h157l-7 17-3 11-1 6v14l3 14 3 8v3h-159l-10-5-6-8-4-9-1-6v-15l3-11 4-8 5-5 8-4z" fill="#9BE878"/>
<path transform="translate(339,452)" d="m0 0h158l-8 20-2 10v18l3 12 4 9v2h-157l-10-4-5-5-4-8-2-8v-20l3-10 6-9 8-5z" fill="#9BE878"/>
<path transform="translate(378,253)" d="m0 0h156l-6 10-5 15-1 5v22l4 15 1 5h-154l-10-5-6-9-4-13v-15l4-14 6-9 8-5z" fill="#9BE878"/>
<path transform="translate(846,812)" d="m0 0 9 1 9 2-2 12-5 26-5 23-6 29-10 47-6 31-14 81-2 10-7 31-5 8-6 4-5 2h-13l-10-4-5-6-2-7 1-9 7-24 15-53 5-13 9-31 9-30 5-17 4-13 6-21 3-9 9-30 10-34z" fill="#A855F7"/>
<path transform="translate(755,292)" d="m0 0h15l13 5 10 8 6 8 4 9 1 4v17l-4 11-8 10-10 8-9 4-4 1h-13l-12-4-11-8-6-7-5-11-1-4v-18l4-10 6-9 9-8 11-5z" fill="#201B1C"/>
<path transform="translate(939,362)" d="m0 0 12 6 16 11 17 13 12 11 7 8 10 12 10 14-3 1-42-13-40-12-17-5-1-3 9-20z" fill="#9BE878"/>
<path transform="translate(756,308)" d="m0 0h12l10 4 6 5 4 7 1 4v12l-4 10-7 7-7 3-5 1h-10l-9-4-7-6-4-9v-16l4-8 5-5 8-4z" fill="#9BE878"/>
<path transform="translate(980,700)" d="m0 0h10l2 9-6 24-6 25-4 17-8 32-5 22-3 2h-9l-2-3v-7l10-43 5-19 4-17 9-39z" fill="#A855F7"/>
<path transform="translate(786,654)" d="m0 0h8l2 2v11l-9 36-7 29-10 40-2 9-2 3-10 1-2-3v-9l11-44 7-31 7-28 4-15z" fill="#A855F7"/>
</svg>
